<svg width="36" height="36" viewBox="0 0 36 36" fill="none" xmlns="http://www.w3.org/2000/svg">
<g clip-path="url(#clip0_253_8710)">
<path d="M32.9058 18.8404H31.9515C30.6572 12.5667 25.238 7.78612 18.6709 7.47956C18.6357 7.46657 18.5996 7.45512 18.5624 7.44571C17.273 7.12118 16.3725 5.85918 16.3725 4.37678C16.3725 3.12497 17.3884 2.10648 18.6371 2.10648C19.5199 2.10648 20.2382 2.82676 20.2382 3.71204C20.2382 4.29371 20.7097 4.76529 21.2914 4.76529C21.8731 4.76529 22.3446 4.29371 22.3446 3.71204C22.3446 1.66524 20.6814 0 18.6371 0C16.2268 0 14.266 1.96338 14.266 4.37678C14.266 5.63196 14.6752 6.79523 15.3732 7.70727C9.70693 8.76943 5.21121 13.2017 4.04801 18.8404H3.0937C1.40128 18.8404 0.0244141 20.2163 0.0244141 21.9076C0.0244141 23.5989 1.40128 24.9748 3.0937 24.9748H4.12531C5.59529 31.2852 11.258 36 17.9997 36C24.7415 36 30.4041 31.2851 31.8742 24.9748H32.9058C34.5982 24.9748 35.9751 23.5989 35.9751 21.9076C35.9751 20.2163 34.5982 18.8404 32.9058 18.8404ZM14.2947 22.7203C13.713 22.7186 13.2428 22.2458 13.2444 21.6641C13.2449 21.5 13.1947 20.6811 12.1574 20.6781C12.1556 20.6781 12.1537 20.6781 12.1518 20.6781C11.1198 20.6781 11.0652 21.4941 11.0648 21.6579C11.0632 22.2395 10.5908 22.7116 10.0085 22.7081C9.42684 22.7064 8.95667 22.2335 8.95829 21.6518C8.96096 20.7164 9.33387 19.8893 10.0084 19.323C10.5858 18.8383 11.347 18.5716 12.153 18.5716H12.1634C12.9732 18.5739 13.7371 18.8452 14.3141 19.3353C14.9853 19.9054 15.3535 20.7345 15.3508 21.67C15.3492 22.2506 14.8779 22.7202 14.2977 22.7202C14.2967 22.7203 14.2958 22.7203 14.2947 22.7203ZM17.9997 31.8044C16.1401 31.8044 14.627 30.2925 14.627 28.4339C14.627 27.8523 15.0986 27.3807 15.6803 27.3807C16.262 27.3807 16.7335 27.8523 16.7335 28.4339C16.7335 29.1309 17.3015 29.698 17.9997 29.698C18.698 29.698 19.2659 29.1309 19.2659 28.4339C19.2659 27.8523 19.7375 27.3807 20.3192 27.3807C20.9009 27.3807 21.3724 27.8523 21.3724 28.4339C21.3724 30.2925 19.8594 31.8044 17.9997 31.8044ZM25.9879 22.7203C25.9868 22.7203 25.9858 22.7203 25.9848 22.7203C25.4031 22.7186 24.9329 22.2457 24.9346 21.6641C24.9357 21.2817 24.7946 21.0136 24.5034 20.8444C24.1238 20.6238 23.5717 20.6222 23.1907 20.8407C22.8986 21.0083 22.756 21.2755 22.7549 21.6579C22.7533 22.2386 22.282 22.7081 21.7017 22.7081C21.7007 22.7081 21.6997 22.7081 21.6987 22.7081C21.1171 22.7064 20.6468 22.2336 20.6484 21.6518C20.6517 20.5179 21.1963 19.5562 22.1427 19.0134C23.1829 18.4168 24.5251 18.4206 25.5619 19.0231C26.5052 19.5713 27.0443 20.536 27.041 21.67C27.0394 22.2507 26.5681 22.7203 25.9879 22.7203Z" fill="#1BADFF"/>
</g>
<defs>
<clipPath id="clip0_253_8710">
<rect width="36" height="36" fill="white"/>
</clipPath>
</defs>
</svg>
