<svg width="34" height="34" viewBox="0 0 34 34" fill="none" xmlns="http://www.w3.org/2000/svg">
<g clip-path="url(#clip0_253_8686)">
<path d="M29.2461 5.14062H24.269L24.7436 2.43359H26.5391C27.073 2.43359 27.5059 2.00073 27.5059 1.4668C27.5059 0.932867 27.073 0.5 26.5391 0.5H23.9316C23.4621 0.5 23.0604 0.837348 22.9794 1.29986L22.306 5.14062H4.75391C4.21998 5.14062 3.78711 5.57349 3.78711 6.10742V10.748C3.78711 11.282 4.21998 11.7148 4.75391 11.7148H6.39733C6.65785 13.8522 6.84122 15.3554 7.04837 17.0534C11.216 18.0059 11.9207 20.6094 17 20.6094C22.0696 20.6094 22.7939 18.0049 26.9516 17.0527C27.0895 15.9227 27.4647 12.8457 27.6027 11.7148H29.2461C29.78 11.7148 30.2129 11.282 30.2129 10.748V6.10742C30.2129 5.57349 29.78 5.14062 29.2461 5.14062Z" fill="#F5BA3C"/>
<path d="M16.9999 22.543C11.7277 22.543 10.3739 20.0972 7.30078 19.1227L8.47924 28.7831C8.47924 28.7832 8.47924 28.7832 8.47924 28.7833L8.95039 32.6503C9.00956 33.1354 9.42142 33.5 9.9101 33.5H24.0898C24.5785 33.5 24.9903 33.1354 25.0495 32.6503L25.2076 31.353C25.2076 31.353 26.6992 19.1215 26.6992 19.1213C23.6306 20.0953 22.272 22.543 16.9999 22.543ZM23.2337 31.5665H10.7662L10.5307 29.6329H23.4694C23.382 30.3499 23.3136 30.9104 23.2337 31.5665Z" fill="#F5BA3C"/>
</g>
<defs>
<clipPath id="clip0_253_8686">
<rect width="33" height="33" fill="white" transform="translate(0.5 0.5)"/>
</clipPath>
</defs>
</svg>
