<svg width="46" height="46" viewBox="0 0 46 46" fill="none" xmlns="http://www.w3.org/2000/svg">
<path d="M42.3199 22.5399V28.6942C42.3199 33.1417 42.3199 35.3654 41.4776 37.064C40.7367 38.5582 39.5545 39.7731 38.1004 40.5344C36.4473 41.3999 34.2832 41.3999 29.9551 41.3999H16.0447C11.7166 41.3999 9.5526 41.3999 7.89949 40.5344C6.44538 39.7731 5.26314 38.5582 4.52223 37.064C3.67993 35.3654 3.67993 33.1417 3.67993 28.6942V18.3709C3.67993 13.9235 3.67993 11.6998 4.52223 10.0011C5.26314 8.50688 6.44538 7.29205 7.89949 6.53072C9.5526 5.66519 11.7166 5.66519 16.0447 5.66519H23.9659M36.5239 15.5915V3.67993M30.7279 9.63572H42.3199M30.7279 23.5326C30.7279 27.9183 27.268 31.4736 22.9999 31.4736C18.7319 31.4736 15.2719 27.9183 15.2719 23.5326C15.2719 19.1468 18.7319 15.5915 22.9999 15.5915C27.268 15.5915 30.7279 19.1468 30.7279 23.5326Z" stroke="#3572EF" stroke-width="3.5" stroke-linecap="round" stroke-linejoin="round"/>
</svg>
