<svg width="24" height="25" viewBox="0 0 24 25" fill="none" xmlns="http://www.w3.org/2000/svg">
<path d="M12.1465 13.5852C12.6853 13.5852 13.1221 13.1484 13.1221 12.6096C13.1221 12.0708 12.6853 11.634 12.1465 11.634C11.6077 11.634 11.1709 12.0708 11.1709 12.6096C11.1709 13.1484 11.6077 13.5852 12.1465 13.5852Z" stroke="#961C47" stroke-width="1.95122" stroke-linecap="round" stroke-linejoin="round"/>
<path d="M12.1465 6.75591C12.6853 6.75591 13.1221 6.31911 13.1221 5.7803C13.1221 5.24148 12.6853 4.80469 12.1465 4.80469C11.6077 4.80469 11.1709 5.24148 11.1709 5.7803C11.1709 6.31911 11.6077 6.75591 12.1465 6.75591Z" stroke="#961C47" stroke-width="1.95122" stroke-linecap="round" stroke-linejoin="round"/>
<path d="M12.1465 20.4144C12.6853 20.4144 13.1221 19.9777 13.1221 19.4388C13.1221 18.9 12.6853 18.4632 12.1465 18.4632C11.6077 18.4632 11.1709 18.9 11.1709 19.4388C11.1709 19.9777 11.6077 20.4144 12.1465 20.4144Z" stroke="#961C47" stroke-width="1.95122" stroke-linecap="round" stroke-linejoin="round"/>
</svg>
