<svg width="33" height="34" viewBox="0 0 33 34" fill="none" xmlns="http://www.w3.org/2000/svg">
<path d="M23.5879 1.4668C23.5879 0.932867 23.155 0.5 22.6211 0.5H18.7539C18.22 0.5 17.7871 0.932867 17.7871 1.4668V3.14258H23.5879V1.4668Z" fill="#0CD4DC"/>
<path d="M6.5426 28.4268C5.6913 27.9246 4.90562 27.3159 4.2074 26.6177C4.15641 26.5667 4.10666 26.5147 4.05677 26.4629C2.90557 27.0364 1.8653 27.8377 1.00427 28.8358C0.691285 29.1986 0.691285 29.736 1.00427 30.0989C2.8689 32.2603 5.57413 33.4999 8.42618 33.4999C9.27689 33.4999 10.1142 33.3888 10.9204 33.1767C9.90828 32.1088 9.08179 30.8861 8.46814 29.5628L6.5426 28.4268Z" fill="#0CD4DC"/>
<path d="M7.52543 26.7615C7.32266 25.8311 7.21683 24.8737 7.21683 23.9037C7.21683 21.7086 7.75127 19.5915 8.72626 17.7093C7.16507 16.9298 5.40621 16.5731 3.62486 16.7044C3.14694 16.7396 2.76692 17.1196 2.73173 17.5975C2.52193 20.4444 3.55828 23.2338 5.57495 25.2505C6.16489 25.8404 6.82115 26.346 7.52543 26.7615Z" fill="#0CD4DC"/>
<path d="M26.2355 13.7867C24.6853 12.9349 23.7962 11.4319 23.7962 9.66318V7.00591C24.2925 6.96504 24.6828 6.55003 24.6828 6.04317C24.6828 5.53541 24.291 5.11988 23.7935 5.0803C23.7933 5.07772 17.5801 5.07772 17.58 5.0803C17.0824 5.11988 16.6907 5.53541 16.6907 6.04317C16.6907 6.55003 17.0809 6.96504 17.5773 7.00591V9.66318C17.5773 11.4318 16.6881 12.9348 15.1379 13.7867C12.6005 15.181 10.7235 17.4469 9.79688 20.094H31.5766C30.6499 17.4469 28.7729 15.1809 26.2355 13.7867Z" fill="#0CD4DC"/>
<path d="M32.0702 22.0273H9.30469C9.20344 22.6418 9.15039 23.2688 9.15039 23.9037C9.15039 27.6385 10.9718 31.1593 14.0228 33.3219C14.1862 33.4377 14.3815 33.5 14.5819 33.5H26.793C26.9933 33.5 27.1887 33.4378 27.3521 33.3219C30.403 31.1593 32.2245 27.6385 32.2245 23.9037C32.2246 23.2689 32.1715 22.6418 32.0702 22.0273Z" fill="#0CD4DC"/>
</svg>
