<svg width="27" height="34" viewBox="0 0 27 34" fill="none" xmlns="http://www.w3.org/2000/svg">
<path d="M14.3597 9.704C14.9487 8.72037 15.8807 7.31261 17.058 5.96179H17.0594C18.0564 4.81535 20.009 3.34393 20.009 3.34393C20.3024 3.12214 20.271 2.81325 19.9373 2.6578L17.5773 1.5549C17.2436 1.39878 16.79 1.51269 16.5689 1.80684C16.5689 1.80684 14.8234 4.3108 12.769 9.64101C6.41681 6.76786 0.378906 10.7922 0.378906 17.7901C0.378906 25.0996 6.00271 36.203 13.6079 32.8514C21.6178 36.3175 26.8409 25.1003 26.8409 17.7901C26.8409 10.7318 21.4134 6.59365 14.3597 9.704Z" fill="#F8644A"/>
<path d="M12.9365 7.3368C13.3037 7.30598 13.628 6.981 13.6575 6.61449C13.6575 6.61449 13.8933 3.75607 11.9012 1.76202C9.90312 -0.232708 7.05001 0.00515859 7.05001 0.00515859C6.68281 0.0359807 6.35851 0.360953 6.32835 0.727468C6.32835 0.727468 6.08847 3.58722 8.08324 5.58195C10.0767 7.57467 12.9365 7.3368 12.9365 7.3368Z" fill="#F8644A"/>
</svg>
