<svg width="32" height="35" viewBox="0 0 32 35" fill="none" xmlns="http://www.w3.org/2000/svg">
<path d="M27.1087 11.9746C24.2395 13.1701 21.2497 13.926 18.1862 14.2336L19.6304 11.7321L24.5552 12.0277C25.1022 12.0605 25.5724 11.6437 25.6052 11.0967C25.638 10.5497 25.2212 10.0796 24.6742 10.0467L20.7398 9.81058L21.6149 8.29485L26.5398 8.59048C27.0868 8.62329 27.5569 8.20647 27.5897 7.65947C27.6225 7.11246 27.2057 6.64239 26.6587 6.60952L22.7243 6.37336L23.8234 4.46959C24.9194 2.57118 27.3469 1.92078 29.2453 3.01678C31.1437 4.11284 31.7941 6.54026 30.698 8.43867L29.1469 11.1253L27.1087 11.9746Z" fill="#AE80FF"/>
<path d="M15.0235 14.3918C13.7068 14.3918 12.4006 14.3105 11.1082 14.1491C11.0735 13.9041 11.0544 13.6541 11.0544 13.3995C11.0544 10.4768 13.4237 8.10742 16.3465 8.10742C17.3199 8.10742 18.2311 8.37137 19.0146 8.82986L15.809 14.3821C15.5476 14.3886 15.2858 14.3918 15.0235 14.3918Z" fill="#AE80FF"/>
<path d="M9.77007 10.2862C9.03685 8.34713 8.90257 6.88803 8.90065 6.86567C8.85414 6.31966 8.37369 5.916 7.82787 5.96099C7.28186 6.00742 6.87681 6.48775 6.92325 7.03376C6.93536 7.17625 7.21095 10.1711 9.07105 13.4672C9.07218 13.5882 9.07714 13.7084 9.08415 13.828C6.98762 13.4246 4.93356 12.8062 2.93791 11.9747L1.74354 11.477C1.90045 11.0923 2.11928 10.7338 2.39348 10.4175C1.04644 9.82025 0.139177 8.47897 0.139177 6.94975C0.139177 4.85236 1.84548 3.14605 3.94287 3.14605C4.27522 3.14605 4.60419 3.19064 4.92621 3.27895C5.37597 1.65851 6.84969 0.5 8.57346 0.5C10.2523 0.5 11.7058 1.59447 12.1955 3.16338C12.3125 3.15181 12.4278 3.14605 12.5425 3.14605C14.3563 3.14605 15.8766 4.42251 16.2549 6.12405C13.3947 6.15944 10.9267 7.85318 9.77007 10.2862Z" fill="#AE80FF"/>
<path d="M2.17471 13.8067C6.26703 15.5119 10.5899 16.3764 15.0233 16.3764C19.4567 16.3764 23.7796 15.5119 27.872 13.8067C28.5681 13.5167 29.3205 14.0785 29.2402 14.8284C28.9096 17.9137 27.7131 29.2013 27.4454 31.7091C27.2835 33.2258 26.0109 34.3696 24.4854 34.3696H5.56133C4.03574 34.3696 2.76326 33.2258 2.60132 31.709C2.33361 29.2013 1.13706 17.9136 0.806505 14.8283C0.726131 14.0785 1.4786 13.5167 2.17471 13.8067ZM7.41594 27.7545C7.41594 28.3025 7.86021 28.7467 8.40821 28.7467H21.6385C22.1865 28.7467 22.6307 28.3025 22.6307 27.7545V22.4624C22.6307 21.9144 22.1865 21.4701 21.6385 21.4701H8.40821C7.86021 21.4701 7.41594 21.9144 7.41594 22.4624V27.7545Z" fill="#AE80FF"/>
<path d="M20.6465 23.4546H9.40077V26.7622H20.6465V23.4546Z" fill="#AE80FF"/>
</svg>
