<svg width="38" height="38" viewBox="0 0 38 38" fill="none" xmlns="http://www.w3.org/2000/svg">
<g clip-path="url(#clip0_253_8699)">
<path d="M33.4015 2.55536C30.5742 0.923534 26.6767 0.854761 23.2319 2.37631C20.0445 3.78488 17.7468 6.88857 16.3886 9.22101C15.7773 9.07193 15.123 9.36262 14.8391 9.95424C14.5675 10.5199 14.7261 11.1763 15.1782 11.5684C15.0543 11.8441 14.9787 12.0293 14.9501 12.1014L8.35325 26.5913C7.68809 26.2849 6.89563 26.558 6.5675 27.219C6.23324 27.8923 6.50762 28.7093 7.1809 29.0442L7.22582 29.0667L5.74179 32.3283H2.05396C1.30237 32.3283 0.692383 32.9383 0.692383 33.6899C0.692383 34.4415 1.30237 35.0515 2.05396 35.0515H8.86186C9.61345 35.0515 10.2234 34.4415 10.2234 33.6899C10.2234 32.9383 9.61345 32.3283 8.86186 32.3283H8.73385L9.67809 30.254C9.80268 30.2901 9.92862 30.3146 10.0546 30.3146C10.5549 30.3146 11.037 30.0375 11.2752 29.5589C11.5871 28.9313 11.3651 28.1844 10.7891 27.814L17.625 12.7993C17.8095 12.8844 18.0021 12.9266 18.1934 12.9266C18.7006 12.9266 19.1874 12.6421 19.4216 12.1539C19.7333 11.5051 19.4801 10.7358 18.8633 10.3859C20.0281 8.42315 21.8929 5.94575 24.3334 4.86738C26.9572 3.70799 29.9827 3.72572 32.0407 4.91365C33.5541 5.78713 34.4234 7.17662 34.6263 9.04467C35.0062 12.5433 34.6841 14.8892 33.6718 16.0187C33.5785 16.1228 33.4758 16.212 33.3709 16.2964V19.3443C34.2096 19.061 35.015 18.5989 35.6985 17.8371C37.2725 16.084 37.8068 13.1117 37.3338 8.75121C37.0411 6.04919 35.6441 3.84888 33.4015 2.55536Z" fill="#FF7EB6"/>
<path d="M29.5237 25.5204C30.4122 25.5204 31.2523 25.7225 32.0086 26.0752V19.6615V16.8989V15.3086C32.0086 14.5563 32.0801 14.6278 31.3279 14.6278H28.6612C27.909 14.6278 20.3215 15.2521 18.3173 25.1596L17.0312 33.3494C17.0312 34.1016 17.6406 35.0513 18.3928 35.0513H24.8542C24.0767 34.0499 23.609 32.7973 23.609 31.435C23.609 28.1733 26.2628 25.5204 29.5237 25.5204Z" fill="#FF7EB6"/>
<path d="M32.6894 28.17C32.4804 27.9679 32.253 27.7855 32.0087 27.6255C31.2932 27.1571 30.4402 26.8821 29.5238 26.8821C27.013 26.8821 24.9707 28.9245 24.9707 31.4352C24.9707 32.9098 25.6787 34.2196 26.7694 35.0515C27.1493 35.3415 27.5748 35.5723 28.0343 35.7323C28.502 35.895 29.0018 35.9876 29.5239 35.9876C30.0461 35.9876 30.5458 35.895 31.0135 35.7323C31.4955 35.5648 31.9414 35.319 32.3349 35.0093C32.7052 34.7179 33.0314 34.3728 33.2962 33.982C33.7891 33.2542 34.0778 32.3774 34.0778 31.4345C34.0778 30.5427 33.8164 29.7127 33.3718 29.0102C33.1761 28.7038 32.9488 28.4214 32.6894 28.17ZM29.5237 29.1512C30.7846 29.1512 31.8071 30.1736 31.8071 31.4345C31.8071 32.6953 30.7846 33.7179 29.5237 33.7179C28.2629 33.7179 27.2404 32.6953 27.2404 31.4345C27.2404 30.1736 28.2623 29.1512 29.5237 29.1512Z" fill="#FF7EB6"/>
</g>
<defs>
<clipPath id="clip0_253_8699">
<rect width="36.8077" height="36.8077" fill="white" transform="translate(0.692383 0.230713)"/>
</clipPath>
</defs>
</svg>
