<svg width="128" height="104" viewBox="0 0 128 104" fill="none" xmlns="http://www.w3.org/2000/svg">
<mask id="mask0_732_25990" style="mask-type:luminance" maskUnits="userSpaceOnUse" x="0" y="0" width="128" height="89">
<path d="M0 0H127.777V88.393H0V0Z" fill="white"/>
</mask>
<g mask="url(#mask0_732_25990)">
<path d="M127.816 63.265C127.816 70.2159 125.1 76.1484 119.667 81.0636C114.233 85.9788 107.674 88.4358 99.9904 88.4358H61.6786C63.3687 87.377 64.9805 86.1558 66.5099 84.7747C70.3275 81.3212 73.034 77.4086 74.6067 73.0759H99.9931C102.995 73.0759 105.541 72.1209 107.631 70.2086C109.722 68.2975 110.768 65.9821 110.768 63.2687C110.768 60.5565 109.722 58.2412 107.631 56.33C105.541 54.4177 102.995 53.4603 99.9931 53.4603H82.6036C78.2636 53.4603 74.2611 52.7154 70.5948 51.2304V63.4836C70.5948 70.393 67.9003 76.2851 62.5128 81.1576C57.1254 86.0313 50.6134 88.4687 42.9756 88.4687H8.40039V27.1453H25.4484V36.5837H45.4297C47.6571 36.5837 49.5767 35.8535 51.1912 34.3942C52.3264 33.3672 53.0621 32.201 53.401 30.898C53.544 30.3497 53.6129 29.7782 53.6129 29.1798V21.4523C54.6942 16.3209 57.4129 11.7928 61.7704 7.86554C64.4581 5.44275 67.3995 3.58169 70.5948 2.28236C74.2841 0.780327 78.3081 0.0305301 82.6724 0.0305301H127.819L117.454 15.3904H83.2178C79.897 15.3904 76.9677 16.3661 74.4204 18.32C72.5319 19.7683 71.2562 21.484 70.5948 23.4647V26.3418C70.5948 27.3945 70.5327 28.4239 70.4112 29.4301C69.7106 35.188 67.0121 40.196 62.309 44.4493C61.9958 44.7326 61.6813 45.0074 61.36 45.2748C56.0265 49.7223 49.6685 51.946 42.2926 51.946H25.4484V73.1064H46.453C48.4535 73.1064 50.145 72.48 51.5354 71.2246C52.9204 69.9693 53.6142 68.4379 53.6142 66.6269V55.3897C58.0298 54.0013 62.0525 51.7482 65.6527 48.6464C65.8714 48.4572 66.0901 48.2642 66.3088 48.0676C66.437 47.9528 66.5612 47.838 66.6868 47.722C66.7826 47.6329 66.8771 47.5425 66.9743 47.4534C67.116 47.319 67.2537 47.1835 67.3914 47.0504C67.4468 46.9942 67.5035 46.9392 67.5575 46.8867C67.6466 46.7988 67.7329 46.7109 67.8166 46.6242C67.8949 46.546 67.9692 46.4691 68.0434 46.3909C68.2621 46.165 68.4754 45.9403 68.6846 45.7095C68.7562 45.6338 68.8277 45.5557 68.8966 45.4763C69.095 45.2553 69.2853 45.0342 69.477 44.8132C69.558 44.7143 69.6417 44.6178 69.7241 44.5189C69.7362 44.503 69.7484 44.4884 69.7619 44.4725C69.9023 44.3027 70.0386 44.1293 70.1763 43.9596C70.1817 43.9547 70.1844 43.9498 70.1898 43.9425C72.2241 41.3561 73.7535 38.562 74.7673 35.5824C77.0001 37.2615 79.6378 38.1041 82.6751 38.1041H99.9985C107.682 38.1041 114.241 40.5623 119.673 45.4763C125.1 50.3829 127.816 56.3129 127.816 63.265ZM53.6804 9.2946e-07V0.0622805H8.40039L17.2356 15.4221H49.6428C51.3666 11.3129 54.0908 7.56636 57.7801 4.2399C59.5754 2.62307 61.4923 1.20407 63.5091 -0.00244141H53.6804V9.2946e-07Z" fill="#FF9A2D"/>
</g>
<path d="M14.4089 97.9675C15.3701 98.473 15.8506 99.3572 15.8506 100.62C15.8506 101.333 15.7588 101.897 15.5753 102.31C15.474 102.513 15.3512 102.698 15.2081 102.867C15.0677 103.037 14.9071 103.184 14.7275 103.311C14.3927 103.53 13.9824 103.689 13.4964 103.79C13.0104 103.89 12.4435 103.941 11.7955 103.941H8.91211V93.6396H11.5687C13.3182 93.6396 14.4413 94.0671 14.9381 94.9194C15.1217 95.2296 15.2135 95.596 15.2135 96.0185C15.2135 96.2273 15.1824 96.441 15.1217 96.6584C15.0596 96.8733 14.9732 97.0858 14.8625 97.2934C14.8409 97.3325 14.8193 97.3691 14.7977 97.4008C14.7788 97.4302 14.7599 97.4643 14.7383 97.5034C14.7194 97.5401 14.7005 97.5743 14.6789 97.606C14.66 97.6353 14.6371 97.6671 14.6087 97.6988C14.5831 97.7318 14.5601 97.7648 14.5385 97.7965C14.5196 97.8295 14.498 97.86 14.4737 97.8893C14.4481 97.9162 14.4265 97.9418 14.4089 97.9675ZM10.6994 98.9591V102.5H11.7199C12.5906 102.5 13.1832 102.405 13.4964 102.212C13.8703 101.995 14.058 101.527 14.058 100.81C14.058 100.462 14.0148 100.168 13.9284 99.9262C13.842 99.682 13.7232 99.4951 13.572 99.3645C13.4208 99.2314 13.2278 99.1325 12.9942 99.0665C12.731 98.9957 12.4327 98.9591 12.0979 98.9591H10.6994ZM12.8754 97.5425C13.0658 97.3056 13.2048 97.0736 13.2912 96.8489C13.3776 96.6242 13.4208 96.4032 13.4208 96.1846C13.4208 95.7523 13.2885 95.4665 13.0266 95.3297C12.6919 95.1673 12.1802 95.0855 11.4931 95.0855H10.6994V97.5132H12.1735C12.2234 97.5132 12.272 97.5132 12.3193 97.5132C12.3652 97.5132 12.4138 97.5169 12.4651 97.523C12.515 97.5266 12.5623 97.5278 12.6055 97.5278C12.6514 97.5278 12.6973 97.5315 12.7405 97.5376C12.7863 97.5413 12.8322 97.5425 12.8754 97.5425Z" fill="#FFA747"/>
<path d="M24.1401 101.401H20.0093L19.1292 103.707L19.0374 103.941H17.2285L17.4121 103.492L21.2512 93.8741L21.343 93.6396H22.8009L22.8927 93.8595L26.8723 103.477L27.0667 103.941H25.139L25.0472 103.707L24.1401 101.401ZM20.5277 100.029H23.6055L22.0288 96.0722L20.5277 100.029Z" fill="#FFA747"/>
<path d="M29.4522 93.6396H32.1844C33.3075 93.6396 34.2538 93.8631 35.0246 94.3088C35.7941 94.7521 36.3502 95.4079 36.6931 96.2774C36.955 96.9002 37.0873 97.711 37.0873 98.7099C37.0873 99.2057 37.0562 99.6624 36.9955 100.083C36.9374 100.503 36.847 100.887 36.7255 101.235C36.6634 101.411 36.5959 101.577 36.5203 101.734C36.4447 101.887 36.3597 102.035 36.2665 102.178C36.1761 102.322 36.0775 102.455 35.9696 102.579C35.8643 102.699 35.7509 102.811 35.6294 102.911C35.1542 103.325 34.5832 103.599 33.9177 103.736C33.2873 103.873 32.584 103.941 31.8064 103.941H29.0742V93.6396H29.4522ZM30.8615 95.0855V102.5H31.7308C32.2344 102.5 32.7203 102.46 33.1887 102.378C34.5953 102.157 35.3 100.912 35.3 98.6416C35.3 97.3496 34.9787 96.4093 34.3389 95.8231C33.8016 95.3322 33.0592 95.0855 32.1088 95.0855H30.8615Z" fill="#FFA747"/>
<path d="M45.683 101.401H41.5523L40.6722 103.707L40.5804 103.941H38.7715L38.9551 103.492L42.7942 93.8741L42.886 93.6396H44.3439L44.4357 93.8595L48.4152 103.477L48.6096 103.941H46.682L46.5902 103.707L45.683 101.401ZM42.0707 100.029H45.1485L43.5718 96.0722L42.0707 100.029Z" fill="#FFA747"/>
<path d="M68.1891 94.2991L68.0055 95.0855L67.9299 95.4274L67.5681 95.3444C66.8081 95.1979 66.1696 95.1246 65.6513 95.1246C64.7293 95.1246 64.0705 95.2321 63.675 95.447C63.2822 95.6619 63.0864 95.9819 63.0864 96.4044C63.0864 96.7048 63.1863 96.9319 63.3888 97.0882C63.644 97.2812 63.9679 97.4424 64.3608 97.5718C64.5727 97.6341 64.7954 97.6976 65.0303 97.7623C65.2638 97.8283 65.5014 97.8869 65.7431 97.9382C66.279 98.0591 66.7757 98.2251 67.2334 98.4364C67.6073 98.6 67.9218 98.8015 68.1783 99.0421C68.4375 99.2802 68.6346 99.5501 68.7723 99.853C68.9086 100.153 68.9774 100.482 68.9774 100.84C68.9774 101.189 68.9261 101.511 68.8263 101.807C68.725 102.104 68.5752 102.376 68.3781 102.623C68.1796 102.87 67.9353 103.087 67.6437 103.272C66.9121 103.728 65.9604 103.956 64.7873 103.956C63.351 103.956 62.1361 103.658 61.1426 103.062L60.8672 102.901L61.0238 102.623L61.418 101.924L61.6123 101.567L61.9633 101.802C62.2036 101.948 62.564 102.095 63.0432 102.242C63.5076 102.378 63.9571 102.447 64.3932 102.447C65.253 102.447 65.9266 102.323 66.4126 102.075C66.9269 101.809 67.1848 101.425 67.1848 100.923C67.1848 100.545 67.0781 100.261 66.8662 100.068C66.6138 99.8407 66.2898 99.6576 65.8942 99.5208C65.469 99.3645 65.0141 99.2314 64.5281 99.1203C64.0017 99.003 63.5103 98.8516 63.054 98.666C61.8796 98.2007 61.2938 97.4961 61.2938 96.5509C61.2938 95.646 61.642 94.928 62.3413 94.3968C63.0216 93.8766 63.9625 93.6152 65.1653 93.6152C65.3165 93.6152 65.465 93.6177 65.6135 93.6201C65.7606 93.6238 65.9104 93.6299 66.0616 93.6397C66.2128 93.6494 66.364 93.6641 66.5152 93.6836C66.6691 93.7007 66.823 93.7178 66.9742 93.7374C67.1254 93.7569 67.2779 93.7801 67.4331 93.8057C67.5911 93.8326 67.7463 93.8644 67.8975 93.9034L68.2809 93.9718L68.1891 94.2991Z" fill="#FFA747"/>
<path d="M77.193 101.401H73.0623L72.1822 103.707L72.0904 103.941H70.2815L70.4651 103.492L74.3042 93.8741L74.396 93.6396H75.8539L75.9457 93.8595L79.9252 103.477L80.1196 103.941H78.192L78.1002 103.707L77.193 101.401ZM73.5807 100.029H76.6585L75.0818 96.0722L73.5807 100.029Z" fill="#FFA747"/>
<path d="M90.5506 93.9865V99.4768C90.5506 100.998 90.1457 102.152 89.3357 102.94C88.6081 103.646 87.6159 104 86.3605 104C85.1078 104 84.1413 103.724 83.4609 103.175C82.5713 102.432 82.1272 101.2 82.1272 99.4768V93.6396H83.9145V99.4671C83.9145 100.1 83.982 100.628 84.1197 101.055C84.256 101.478 84.4571 101.804 84.7244 102.032C85.0983 102.381 85.664 102.554 86.4199 102.554C86.9882 102.554 87.4485 102.43 87.8022 102.178C88.1586 101.928 88.4313 101.522 88.623 100.962C88.766 100.569 88.8389 100.07 88.8389 99.4671V93.6396H90.5506V93.9865Z" fill="#FFA747"/>
<path d="M93.4209 93.6396H96.1532C97.2763 93.6396 98.2226 93.8631 98.9934 94.3088C99.7628 94.7521 100.319 95.4079 100.662 96.2774C100.924 96.9002 101.056 97.711 101.056 98.7099C101.056 99.2057 101.025 99.6624 100.964 100.083C100.906 100.503 100.816 100.887 100.694 101.235C100.632 101.411 100.565 101.577 100.489 101.734C100.413 101.887 100.328 102.035 100.235 102.178C100.145 102.322 100.046 102.455 99.9383 102.579C99.833 102.699 99.7196 102.811 99.5981 102.911C99.123 103.325 98.5519 103.599 97.8864 103.736C97.256 103.873 96.5527 103.941 95.7752 103.941H93.043V93.6396H93.4209ZM94.8302 95.0855V102.5H95.6996C96.2031 102.5 96.6891 102.46 97.1575 102.378C98.5641 102.157 99.2687 100.912 99.2687 98.6416C99.2687 97.3496 98.9475 96.4093 98.3076 95.8231C97.7704 95.3322 97.0279 95.0855 96.0776 95.0855H94.8302Z" fill="#FFA747"/>
<path d="M109.652 101.401H105.521L104.641 103.707L104.549 103.941H102.74L102.924 103.492L106.763 93.8741L106.855 93.6396H108.313L108.404 93.8595L112.384 103.477L112.578 103.941H110.651L110.559 103.707L109.652 101.401ZM106.039 100.029H109.117L107.541 96.0722L106.039 100.029Z" fill="#FFA747"/>
</svg>
