<svg width="128" height="89" viewBox="0 0 128 89" fill="none" xmlns="http://www.w3.org/2000/svg">
<mask id="mask0_656_45909" style="mask-type:luminance" maskUnits="userSpaceOnUse" x="0" y="0" width="128" height="89">
<path d="M0 0H127.777V88.393H0V0Z" fill="white"/>
</mask>
<g mask="url(#mask0_656_45909)">
<path d="M127.816 63.265C127.816 70.2159 125.1 76.1484 119.667 81.0636C114.233 85.9788 107.674 88.4358 99.9904 88.4358H61.6786C63.3687 87.377 64.9805 86.1558 66.5099 84.7747C70.3275 81.3212 73.034 77.4086 74.6067 73.0759H99.9931C102.995 73.0759 105.541 72.1209 107.631 70.2086C109.722 68.2975 110.768 65.9821 110.768 63.2687C110.768 60.5565 109.722 58.2412 107.631 56.33C105.541 54.4177 102.995 53.4603 99.9931 53.4603H82.6036C78.2636 53.4603 74.2611 52.7154 70.5948 51.2304V63.4836C70.5948 70.393 67.9003 76.2851 62.5128 81.1576C57.1254 86.0313 50.6134 88.4687 42.9756 88.4687H8.40039V27.1453H25.4484V36.5837H45.4297C47.6571 36.5837 49.5767 35.8535 51.1912 34.3942C52.3264 33.3672 53.0621 32.201 53.401 30.898C53.544 30.3497 53.6129 29.7782 53.6129 29.1798V21.4523C54.6942 16.3209 57.4129 11.7928 61.7704 7.86554C64.4581 5.44275 67.3995 3.58169 70.5948 2.28236C74.2841 0.780327 78.3081 0.0305301 82.6724 0.0305301H127.819L117.454 15.3904H83.2178C79.897 15.3904 76.9677 16.3661 74.4204 18.32C72.5319 19.7683 71.2562 21.484 70.5948 23.4647V26.3418C70.5948 27.3945 70.5327 28.4239 70.4112 29.4301C69.7106 35.188 67.0121 40.196 62.309 44.4493C61.9958 44.7326 61.6813 45.0074 61.36 45.2748C56.0265 49.7223 49.6685 51.946 42.2926 51.946H25.4484V73.1064H46.453C48.4535 73.1064 50.145 72.48 51.5354 71.2246C52.9204 69.9693 53.6142 68.4379 53.6142 66.6269V55.3897C58.0298 54.0013 62.0525 51.7482 65.6527 48.6464C65.8714 48.4572 66.0901 48.2642 66.3088 48.0676C66.437 47.9528 66.5612 47.838 66.6868 47.722C66.7826 47.6329 66.8771 47.5425 66.9743 47.4534C67.116 47.319 67.2537 47.1835 67.3914 47.0504C67.4468 46.9942 67.5035 46.9392 67.5575 46.8867C67.6466 46.7988 67.7329 46.7109 67.8166 46.6242C67.8949 46.546 67.9692 46.4691 68.0434 46.3909C68.2621 46.165 68.4754 45.9403 68.6846 45.7095C68.7562 45.6338 68.8277 45.5557 68.8966 45.4763C69.095 45.2553 69.2853 45.0342 69.477 44.8132C69.558 44.7143 69.6417 44.6178 69.7241 44.5189C69.7362 44.503 69.7484 44.4884 69.7619 44.4725C69.9023 44.3027 70.0386 44.1293 70.1763 43.9596C70.1817 43.9547 70.1844 43.9498 70.1898 43.9425C72.2241 41.3561 73.7535 38.562 74.7673 35.5824C77.0001 37.2615 79.6378 38.1041 82.6751 38.1041H99.9985C107.682 38.1041 114.241 40.5623 119.673 45.4763C125.1 50.3829 127.816 56.3129 127.816 63.265ZM53.6804 9.2946e-07V0.0622805H8.40039L17.2356 15.4221H49.6428C51.3666 11.3129 54.0908 7.56636 57.7801 4.2399C59.5754 2.62307 61.4923 1.20407 63.5091 -0.00244141H53.6804V9.2946e-07Z" fill="#FF9A2D"/>
</g>
</svg>
