<svg width="24" height="25" viewBox="0 0 24 25" fill="none" xmlns="http://www.w3.org/2000/svg">
<path d="M8.17605 9.53957C8.85507 10.9538 9.78072 12.2793 10.953 13.4516C12.1253 14.6239 13.4508 15.5495 14.865 16.2286C14.9867 16.287 15.0475 16.3162 15.1245 16.3386C15.398 16.4183 15.7338 16.3611 15.9655 16.1952C16.0307 16.1485 16.0864 16.0928 16.198 15.9812C16.539 15.6402 16.7096 15.4696 16.8811 15.3581C17.5278 14.9376 18.3615 14.9376 19.0082 15.3581C19.1797 15.4696 19.3503 15.6402 19.6914 15.9812L19.8815 16.1714C20.4 16.6898 20.6592 16.9491 20.8 17.2275C21.0801 17.7812 21.0801 18.4351 20.8 18.9888C20.6592 19.2673 20.4 19.5265 19.8815 20.045L19.7277 20.1988C19.211 20.7155 18.9526 20.9738 18.6014 21.1711C18.2116 21.3901 17.6063 21.5475 17.1592 21.5462C16.7563 21.545 16.481 21.4668 15.9303 21.3105C12.9709 20.4706 10.1784 18.8857 7.84862 16.556C5.51888 14.2262 3.93403 11.4337 3.09406 8.47429C2.93776 7.92361 2.85961 7.64827 2.85841 7.24539C2.85708 6.79835 3.0145 6.19299 3.23345 5.80323C3.43076 5.45198 3.68912 5.19362 4.20582 4.67692L4.35961 4.52313C4.87809 4.00465 5.13733 3.74541 5.41575 3.60458C5.96947 3.32451 6.62339 3.32451 7.17711 3.60458C7.45553 3.74541 7.71477 4.00465 8.23325 4.52313L8.42337 4.71324C8.76445 5.05432 8.93498 5.22486 9.04648 5.39635C9.46697 6.04308 9.46697 6.87681 9.04648 7.52354C8.93498 7.69503 8.76445 7.86557 8.42337 8.20665C8.31184 8.31817 8.25608 8.37393 8.20941 8.43911C8.04354 8.67075 7.98627 9.00662 8.066 9.28013C8.08844 9.3571 8.11764 9.41792 8.17605 9.53957Z" stroke="#1C8596" stroke-width="1.95122" stroke-linecap="round" stroke-linejoin="round"/>
</svg>
