<svg width="24" height="25" viewBox="0 0 24 25" fill="none" xmlns="http://www.w3.org/2000/svg">
<path d="M8.60014 14.0828L15.2636 17.9657M15.2538 7.25352L8.60014 11.1364M20.7075 5.78035C20.7075 7.39679 19.3971 8.70718 17.7806 8.70718C16.1642 8.70718 14.8538 7.39679 14.8538 5.78035C14.8538 4.1639 16.1642 2.85352 17.7806 2.85352C19.3971 2.85352 20.7075 4.1639 20.7075 5.78035ZM9.00014 12.6096C9.00014 14.2261 7.68976 15.5364 6.07331 15.5364C4.45687 15.5364 3.14648 14.2261 3.14648 12.6096C3.14648 10.9932 4.45687 9.68279 6.07331 9.68279C7.68976 9.68279 9.00014 10.9932 9.00014 12.6096ZM20.7075 19.4389C20.7075 21.0553 19.3971 22.3657 17.7806 22.3657C16.1642 22.3657 14.8538 21.0553 14.8538 19.4389C14.8538 17.8224 16.1642 16.5121 17.7806 16.5121C19.3971 16.5121 20.7075 17.8224 20.7075 19.4389Z" stroke="#1C4796" stroke-width="1.95122" stroke-linecap="round" stroke-linejoin="round"/>
</svg>
