<svg width="25" height="25" viewBox="0 0 25 25" fill="none" xmlns="http://www.w3.org/2000/svg">
<path d="M5.65841 14.5608H18.4738C19.4619 14.5608 19.9559 14.5608 20.3493 14.3766C20.6957 14.2143 20.9868 13.9538 21.1864 13.6273C21.4129 13.2568 21.4675 12.7657 21.5766 11.7836L22.1473 6.64702C22.1807 6.34706 22.1973 6.19708 22.1491 6.08099C22.1067 5.97903 22.0311 5.89446 21.9344 5.8411C21.8243 5.78035 21.6734 5.78035 21.3716 5.78035H5.17061M2.73145 2.85352H3.94943C4.2076 2.85352 4.33669 2.85352 4.43768 2.90261C4.52658 2.94584 4.60026 3.01505 4.64895 3.10109C4.70425 3.19882 4.7123 3.32765 4.7284 3.58532L5.61254 17.7315C5.62864 17.9891 5.63669 18.118 5.69199 18.2157C5.74068 18.3017 5.81436 18.371 5.90326 18.4142C6.00425 18.4633 6.13334 18.4633 6.39151 18.4633H19.3168M8.0973 21.8779H8.10706M16.8778 21.8779H16.8875M8.58511 21.8779C8.58511 22.1473 8.36671 22.3657 8.0973 22.3657C7.82789 22.3657 7.6095 22.1473 7.6095 21.8779C7.6095 21.6085 7.82789 21.3901 8.0973 21.3901C8.36671 21.3901 8.58511 21.6085 8.58511 21.8779ZM17.3656 21.8779C17.3656 22.1473 17.1472 22.3657 16.8778 22.3657C16.6084 22.3657 16.39 22.1473 16.39 21.8779C16.39 21.6085 16.6084 21.3901 16.8778 21.3901C17.1472 21.3901 17.3656 21.6085 17.3656 21.8779Z" stroke="#1C9626" stroke-width="1.95122" stroke-linecap="round" stroke-linejoin="round"/>
</svg>
