<svg width="30" height="33" viewBox="0 0 30 33" fill="none" xmlns="http://www.w3.org/2000/svg">
<path d="M4.85407 15.8493C4.85407 14.9261 5.12783 14.0382 5.63663 13.2865C5.46946 12.7473 5.38307 12.1823 5.38307 11.6223C5.38307 9.20752 6.90613 7.10383 9.11413 6.31404C9.31104 4.51359 10.4667 2.96427 12.0952 2.22268C11.2582 0.868988 9.93709 0.0752691 8.71921 0.272578C7.83903 0.415515 7.10976 1.01305 6.68117 1.91495C5.90983 1.56069 5.10763 1.50183 4.40416 1.74903C3.64292 2.01697 3.05165 2.58983 2.6943 3.40541C2.22028 4.48557 2.21971 5.8757 2.67803 7.19744C2.0604 7.62121 1.59871 8.24396 1.32888 9.02479C0.87505 10.3359 1.02651 11.9177 1.74401 13.3667C1.82254 13.5248 1.90837 13.6817 2.00206 13.8359C1.32832 14.2736 0.824001 14.9227 0.55361 15.7148C0.123901 16.9715 0.314072 18.4524 1.07532 19.7764C1.42481 20.3846 1.88762 20.9356 2.42672 21.3885C2.24664 22.1419 2.38296 22.9698 2.82164 23.7192C3.43479 24.7646 4.53936 25.4737 5.71966 25.5931C7.30049 28.5617 9.21118 30.0763 11.9437 31.3885C8.69733 27.5539 6.8921 24.3779 6.79056 19.5886C5.59568 18.7361 4.85407 17.3353 4.85407 15.8493Z" fill="#28B446"/>
<path d="M29.8324 11.4705C29.8773 9.28774 28.5944 7.32418 26.6063 6.47553C26.3162 4.61287 24.8139 3.15716 22.947 2.91052C22.9302 2.72498 22.8948 2.54001 22.8415 2.35727C22.5122 1.23396 21.521 0.388107 20.376 0.252457C19.6271 0.163332 18.9192 0.351112 18.3341 0.761984C17.8124 0.417255 17.2048 0.231157 16.5821 0.231157C14.9783 0.231157 13.6454 1.41501 13.4132 2.95424C11.5793 3.3242 10.2044 4.95704 10.2044 6.86734C10.2044 6.96992 10.2089 7.0725 10.2167 7.17676C8.09062 7.55905 6.50305 9.40489 6.50305 11.6229C6.50305 12.2642 6.64161 12.8998 6.90752 13.4845C6.31007 14.1229 5.97461 14.9632 5.97461 15.8499C5.97461 17.175 6.73642 18.3768 7.90718 18.9553C7.85557 24.0354 9.70736 27.1195 13.3201 31.2753L13.5237 31.5068L13.5607 31.5489C14.1082 32.1627 14.8964 32.5001 15.7811 32.5001C15.9342 32.5001 16.0851 32.4872 16.2338 32.4681L16.0419 32.096C14.8364 29.2311 14.0965 26.6873 13.6836 24.4261C12.128 23.9474 11.4554 22.7053 11.4256 22.6481C11.2809 22.3746 11.3869 22.0349 11.6607 21.8908C11.9328 21.7468 12.271 21.851 12.4174 22.1229C12.4382 22.1616 12.7647 22.7356 13.4788 23.1268C13.2836 21.6599 13.2269 20.3202 13.2836 19.1128C13.2769 19.0517 13.2797 18.9917 13.2937 18.9301C13.3913 17.2042 13.7066 15.7434 14.1228 14.5192C12.2329 13.3931 11.9995 11.2967 12.1622 10.2793C12.211 9.97383 12.4993 9.76251 12.8045 9.81408C13.1103 9.86285 13.3184 10.1493 13.2707 10.4542C13.2567 10.5445 13.0048 12.4038 14.5351 13.4497C14.6114 13.2732 14.6883 13.0977 14.7679 12.9335C16.2433 9.89088 18.352 8.37687 19.1683 7.87743C19.1666 6.75468 19.9031 5.77934 19.9379 5.73394C20.1258 5.48786 20.4793 5.4419 20.7238 5.62912C20.9696 5.8169 21.0167 6.16835 20.8293 6.41387C20.7042 6.57979 20.4585 6.9929 20.3486 7.4475C21.6405 7.3012 22.9016 8.0299 22.9655 8.06801C23.2331 8.22552 23.3212 8.56913 23.1641 8.83539C23.0592 9.01252 22.8718 9.11117 22.6805 9.11117C22.5835 9.11117 22.4859 9.08651 22.3967 9.03382C22.0057 8.80568 20.8153 8.30176 19.9996 8.69189C19.8577 8.7642 18.9029 9.27765 17.8163 10.4105C20.0417 10.2485 21.5894 10.9088 21.6674 10.9424C21.9507 11.0674 22.0797 11.3982 21.9558 11.6812C21.8632 11.8909 21.6573 12.0164 21.4413 12.0164C21.3667 12.0164 21.2904 12.0019 21.2175 11.9693C21.1754 11.9514 19.2776 11.1655 16.7622 11.6885C16.2585 12.3965 15.7738 13.2451 15.3721 14.2563C15.371 14.3303 15.3558 14.4054 15.3233 14.4772C15.302 14.5248 15.2734 14.5663 15.242 14.6044C14.9228 15.4783 14.6653 16.4609 14.5105 17.5708C15.7788 16.7759 17.3787 16.7412 17.4702 16.7401H17.4769C17.7832 16.7401 18.0328 16.9856 18.0373 17.2928C18.0418 17.6022 17.7939 17.8561 17.4848 17.8611C17.4612 17.8617 15.1528 17.9155 14.3674 19.2535C14.3124 20.6207 14.4072 22.147 14.6989 23.8454C14.7017 23.8583 14.7034 23.8712 14.7051 23.8847C15.0978 26.1487 15.836 28.7109 17.0595 31.6195L17.3266 32.1341C17.7383 31.9267 18.0929 31.6397 18.3459 31.2865C18.7683 30.6969 18.8681 29.9816 18.6258 29.2725C17.6115 26.2989 17.643 24.0298 18.7189 22.5276C20.1135 20.5797 23.0182 20.2888 24.6249 20.2888C25.4523 20.2888 26.0206 20.3651 26.0262 20.3662L26.6029 20.4446L26.6607 19.8662C26.6685 19.7899 26.834 17.9839 25.7794 16.7569C25.7182 16.6857 25.6537 16.6184 25.5875 16.554C25.8854 16.4873 26.1799 16.3925 26.4694 16.2703C28.4687 15.4279 29.7893 13.5433 29.8324 11.4705Z" fill="#28B446"/>
</svg>
